<svg id="visual" viewBox="0 0 960 540" width="960" height="540" xmlns="http://www.w3.org/2000/svg" xmlns:xlink="http://www.w3.org/1999/xlink" version="1.1"><path d="M0 114L12.3 126.7C24.7 139.3 49.3 164.7 74 165.7C98.7 166.7 123.3 143.3 148 138C172.7 132.7 197.3 145.3 221.8 157.8C246.3 170.3 270.7 182.7 295.2 179C319.7 175.3 344.3 155.7 369 157.5C393.7 159.3 418.3 182.7 443 180C467.7 177.3 492.3 148.7 517 130.7C541.7 112.7 566.3 105.3 591 110.7C615.7 116 640.3 134 664.8 131.3C689.3 128.7 713.7 105.3 738.2 103.5C762.7 101.7 787.3 121.3 812 134.8C836.7 148.3 861.3 155.7 886 150.3C910.7 145 935.3 127 947.7 118L960 109L960 0L947.7 0C935.3 0 910.7 0 886 0C861.3 0 836.7 0 812 0C787.3 0 762.7 0 738.2 0C713.7 0 689.3 0 664.8 0C640.3 0 615.7 0 591 0C566.3 0 541.7 0 517 0C492.3 0 467.7 0 443 0C418.3 0 393.7 0 369 0C344.3 0 319.7 0 295.2 0C270.7 0 246.3 0 221.8 0C197.3 0 172.7 0 148 0C123.3 0 98.7 0 74 0C49.3 0 24.7 0 12.3 0L0 0Z" fill="#62a7ff"></path><path d="M0 158L12.3 173.2C24.7 188.3 49.3 218.7 74 233C98.7 247.3 123.3 245.7 148 249.3C172.7 253 197.3 262 221.8 274.7C246.3 287.3 270.7 303.7 295.2 298.3C319.7 293 344.3 266 369 256C393.7 246 418.3 253 443 251.2C467.7 249.3 492.3 238.7 517 226.2C541.7 213.7 566.3 199.3 591 198.3C615.7 197.3 640.3 209.7 664.8 202.3C689.3 195 713.7 168 738.2 161.8C762.7 155.7 787.3 170.3 812 190.2C836.7 210 861.3 235 886 241.2C910.7 247.3 935.3 234.7 947.7 228.3L960 222L960 107L947.7 116C935.3 125 910.7 143 886 148.3C861.3 153.7 836.7 146.3 812 132.8C787.3 119.3 762.7 99.7 738.2 101.5C713.7 103.3 689.3 126.7 664.8 129.3C640.3 132 615.7 114 591 108.7C566.3 103.3 541.7 110.7 517 128.7C492.3 146.7 467.7 175.3 443 178C418.3 180.7 393.7 157.3 369 155.5C344.3 153.7 319.7 173.3 295.2 177C270.7 180.7 246.3 168.3 221.8 155.8C197.3 143.3 172.7 130.7 148 136C123.3 141.3 98.7 164.7 74 163.7C49.3 162.7 24.7 137.3 12.3 124.7L0 112Z" fill="#4496ff"></path><path d="M0 244L12.3 253C24.7 262 49.3 280 74 290.8C98.7 301.7 123.3 305.3 148 314.3C172.7 323.3 197.3 337.7 221.8 344.8C246.3 352 270.7 352 295.2 342.2C319.7 332.3 344.3 312.7 369 307.3C393.7 302 418.3 311 443 309.2C467.7 307.3 492.3 294.7 517 284.7C541.7 274.7 566.3 267.3 591 265.5C615.7 263.7 640.3 267.3 664.8 255.7C689.3 244 713.7 217 738.2 216.2C762.7 215.3 787.3 240.7 812 262.3C836.7 284 861.3 302 886 303.7C910.7 305.3 935.3 290.7 947.7 283.3L960 276L960 220L947.7 226.3C935.3 232.7 910.7 245.3 886 239.2C861.3 233 836.7 208 812 188.2C787.3 168.3 762.7 153.7 738.2 159.8C713.7 166 689.3 193 664.8 200.3C640.3 207.7 615.7 195.3 591 196.3C566.3 197.3 541.7 211.7 517 224.2C492.3 236.7 467.7 247.3 443 249.2C418.3 251 393.7 244 369 254C344.3 264 319.7 291 295.2 296.3C270.7 301.7 246.3 285.3 221.8 272.7C197.3 260 172.7 251 148 247.3C123.3 243.7 98.7 245.3 74 231C49.3 216.7 24.7 186.3 12.3 171.2L0 156Z" fill="#2185ff"></path><path d="M0 406L12.3 410.5C24.7 415 49.3 424 74 430.3C98.7 436.7 123.3 440.3 148 436.7C172.7 433 197.3 422 221.8 425.5C246.3 429 270.7 447 295.2 442.5C319.7 438 344.3 411 369 402C393.7 393 418.3 402 443 409.3C467.7 416.7 492.3 422.3 517 422.3C541.7 422.3 566.3 416.7 591 414.8C615.7 413 640.3 415 664.8 414.2C689.3 413.3 713.7 409.7 738.2 412.3C762.7 415 787.3 424 812 420.3C836.7 416.7 861.3 400.3 886 395.8C910.7 391.3 935.3 398.7 947.7 402.3L960 406L960 274L947.7 281.3C935.3 288.7 910.7 303.3 886 301.7C861.3 300 836.7 282 812 260.3C787.3 238.7 762.7 213.3 738.2 214.2C713.7 215 689.3 242 664.8 253.7C640.3 265.3 615.7 261.7 591 263.5C566.3 265.3 541.7 272.7 517 282.7C492.3 292.7 467.7 305.3 443 307.2C418.3 309 393.7 300 369 305.3C344.3 310.7 319.7 330.3 295.2 340.2C270.7 350 246.3 350 221.8 342.8C197.3 335.7 172.7 321.3 148 312.3C123.3 303.3 98.7 299.7 74 288.8C49.3 278 24.7 260 12.3 251L0 242Z" fill="#0076f1"></path><path d="M0 449L12.3 457.2C24.7 465.3 49.3 481.7 74 490.7C98.7 499.7 123.3 501.3 148 495C172.7 488.7 197.3 474.3 221.8 472.5C246.3 470.7 270.7 481.3 295.2 481.3C319.7 481.3 344.3 470.7 369 469C393.7 467.3 418.3 474.7 443 474.7C467.7 474.7 492.3 467.3 517 461.8C541.7 456.3 566.3 452.7 591 455.3C615.7 458 640.3 467 664.8 468C689.3 469 713.7 462 738.2 459.3C762.7 456.7 787.3 458.3 812 458.3C836.7 458.3 861.3 456.7 886 453C910.7 449.3 935.3 443.7 947.7 440.8L960 438L960 404L947.7 400.3C935.3 396.7 910.7 389.3 886 393.8C861.3 398.3 836.7 414.7 812 418.3C787.3 422 762.7 413 738.2 410.3C713.7 407.7 689.3 411.3 664.8 412.2C640.3 413 615.7 411 591 412.8C566.3 414.7 541.7 420.3 517 420.3C492.3 420.3 467.7 414.7 443 407.3C418.3 400 393.7 391 369 400C344.3 409 319.7 436 295.2 440.5C270.7 445 246.3 427 221.8 423.5C197.3 420 172.7 431 148 434.7C123.3 438.3 98.7 434.7 74 428.3C49.3 422 24.7 413 12.3 408.5L0 404Z" fill="#0069d6"></path><path d="M0 541L12.3 541C24.7 541 49.3 541 74 541C98.7 541 123.3 541 148 541C172.7 541 197.3 541 221.8 541C246.3 541 270.7 541 295.2 541C319.7 541 344.3 541 369 541C393.7 541 418.3 541 443 541C467.7 541 492.3 541 517 541C541.7 541 566.3 541 591 541C615.7 541 640.3 541 664.8 541C689.3 541 713.7 541 738.2 541C762.7 541 787.3 541 812 541C836.7 541 861.3 541 886 541C910.7 541 935.3 541 947.7 541L960 541L960 436L947.7 438.8C935.3 441.7 910.7 447.3 886 451C861.3 454.7 836.7 456.3 812 456.3C787.3 456.3 762.7 454.7 738.2 457.3C713.7 460 689.3 467 664.8 466C640.3 465 615.7 456 591 453.3C566.3 450.7 541.7 454.3 517 459.8C492.3 465.3 467.7 472.7 443 472.7C418.3 472.7 393.7 465.3 369 467C344.3 468.7 319.7 479.3 295.2 479.3C270.7 479.3 246.3 468.7 221.8 470.5C197.3 472.3 172.7 486.7 148 493C123.3 499.3 98.7 497.7 74 488.7C49.3 479.7 24.7 463.3 12.3 455.2L0 447Z" fill="#005cbb"></path></svg>